<svg xmlns="http://www.w3.org/2000/svg" viewBox="0 0 512 512" role="img" aria-labelledby="title desc">
  <title id="title">EmojiDecoder</title>
  <desc id="desc">Ícone do app EmojiDecoder</desc>
  <defs>
    <linearGradient id="bg" x1="72" y1="58" x2="442" y2="454" gradientUnits="userSpaceOnUse">
      <stop offset="0" stop-color="#ffe066"/>
      <stop offset="0.4" stop-color="#f43f8f"/>
      <stop offset="1" stop-color="#5b21b6"/>
    </linearGradient>
    <linearGradient id="tile" x1="126" y1="104" x2="386" y2="398" gradientUnits="userSpaceOnUse">
      <stop offset="0" stop-color="#fff8dc"/>
      <stop offset="1" stop-color="#ffd166"/>
    </linearGradient>
  </defs>
  <rect width="512" height="512" fill="url(#bg)"/>
  <circle cx="118" cy="118" r="18" fill="#ffffff" opacity="0.82"/>
  <circle cx="396" cy="138" r="13" fill="#ffffff" opacity="0.68"/>
  <circle cx="410" cy="378" r="22" fill="#ffffff" opacity="0.24"/>
  <path d="M124 207c0-55 45-100 100-100h64c55 0 100 45 100 100v64c0 73-59 132-132 132s-132-59-132-132v-64z" fill="url(#tile)" stroke="#20113f" stroke-width="18"/>
  <path d="M157 228c36-49 80-67 133-53 34 9 61 31 80 66v-39c0-52-43-94-96-94h-36c-53 0-96 42-96 94v38c5-2 10-6 15-12z" fill="#20113f"/>
  <circle cx="209" cy="259" r="16" fill="#20113f"/>
  <path d="M290 260c22-19 47-19 69 0" fill="none" stroke="#20113f" stroke-width="16" stroke-linecap="round"/>
  <path d="M207 322c28 24 70 24 98 0" fill="none" stroke="#20113f" stroke-width="18" stroke-linecap="round"/>
  <path d="M122 309l-50 50" stroke="#ffffff" stroke-width="28" stroke-linecap="round"/>
  <path d="M390 309l50 50" stroke="#ffffff" stroke-width="28" stroke-linecap="round"/>
  <path d="M147 424h218" stroke="#ffffff" stroke-width="31" stroke-linecap="round" opacity="0.95"/>
  <path d="M194 425h124" stroke="#20113f" stroke-width="14" stroke-linecap="round" opacity="0.86"/>
  <path d="M354 342l42 42" stroke="#20113f" stroke-width="22" stroke-linecap="round"/>
  <circle cx="334" cy="322" r="42" fill="none" stroke="#ffffff" stroke-width="24"/>
  <circle cx="334" cy="322" r="27" fill="none" stroke="#20113f" stroke-width="12" opacity="0.9"/>
</svg>
